<svg id="visual" viewBox="0 0 900 600" width="900" height="600" xmlns="http://www.w3.org/2000/svg" xmlns:xlink="http://www.w3.org/1999/xlink" version="1.1"><rect x="0" y="0" width="900" height="600" fill="#fff"></rect><path d="M0 194L21.5 190.8C43 187.7 86 181.3 128.8 178.2C171.7 175 214.3 175 257.2 186C300 197 343 219 385.8 220.7C428.7 222.3 471.3 203.7 514.2 190.5C557 177.3 600 169.7 642.8 177.3C685.7 185 728.3 208 771.2 207.5C814 207 857 183 878.5 171L900 159L900 0L878.5 0C857 0 814 0 771.2 0C728.3 0 685.7 0 642.8 0C600 0 557 0 514.2 0C471.3 0 428.7 0 385.8 0C343 0 300 0 257.2 0C214.3 0 171.7 0 128.8 0C86 0 43 0 21.5 0L0 0Z" fill="#fa6969"></path><path d="M0 159L21.5 159.8C43 160.7 86 162.3 128.8 157C171.7 151.7 214.3 139.3 257.2 141.5C300 143.7 343 160.3 385.8 167.3C428.7 174.3 471.3 171.7 514.2 164.5C557 157.3 600 145.7 642.8 142C685.7 138.3 728.3 142.7 771.2 148.8C814 155 857 163 878.5 167L900 171L900 0L878.5 0C857 0 814 0 771.2 0C728.3 0 685.7 0 642.8 0C600 0 557 0 514.2 0C471.3 0 428.7 0 385.8 0C343 0 300 0 257.2 0C214.3 0 171.7 0 128.8 0C86 0 43 0 21.5 0L0 0Z" fill="#ff6c87"></path><path d="M0 114L21.5 109.7C43 105.3 86 96.7 128.8 101.7C171.7 106.7 214.3 125.3 257.2 136.2C300 147 343 150 385.8 145.2C428.7 140.3 471.3 127.7 514.2 120.5C557 113.3 600 111.7 642.8 109.5C685.7 107.3 728.3 104.7 771.2 108.3C814 112 857 122 878.5 127L900 132L900 0L878.5 0C857 0 814 0 771.2 0C728.3 0 685.7 0 642.8 0C600 0 557 0 514.2 0C471.3 0 428.7 0 385.8 0C343 0 300 0 257.2 0C214.3 0 171.7 0 128.8 0C86 0 43 0 21.5 0L0 0Z" fill="#ff73a4"></path><path d="M0 99L21.5 97.7C43 96.3 86 93.7 128.8 92.2C171.7 90.7 214.3 90.3 257.2 89.8C300 89.3 343 88.7 385.8 85C428.7 81.3 471.3 74.7 514.2 72C557 69.3 600 70.7 642.8 72.7C685.7 74.7 728.3 77.3 771.2 84.3C814 91.3 857 102.7 878.5 108.3L900 114L900 0L878.5 0C857 0 814 0 771.2 0C728.3 0 685.7 0 642.8 0C600 0 557 0 514.2 0C471.3 0 428.7 0 385.8 0C343 0 300 0 257.2 0C214.3 0 171.7 0 128.8 0C86 0 43 0 21.5 0L0 0Z" fill="#fd7ec1"></path><path d="M0 31L21.5 33.5C43 36 86 41 128.8 40C171.7 39 214.3 32 257.2 33C300 34 343 43 385.8 49.2C428.7 55.3 471.3 58.7 514.2 60.2C557 61.7 600 61.3 642.8 55.7C685.7 50 728.3 39 771.2 35.8C814 32.7 857 37.3 878.5 39.7L900 42L900 0L878.5 0C857 0 814 0 771.2 0C728.3 0 685.7 0 642.8 0C600 0 557 0 514.2 0C471.3 0 428.7 0 385.8 0C343 0 300 0 257.2 0C214.3 0 171.7 0 128.8 0C86 0 43 0 21.5 0L0 0Z" fill="#f68bdc"></path></svg>