<svg id="visual" viewBox="0 0 900 600" width="900" height="600" xmlns="http://www.w3.org/2000/svg" xmlns:xlink="http://www.w3.org/1999/xlink" version="1.1"><rect x="0" y="0" width="900" height="600" fill="#fff"></rect><path d="M0 425L21.5 428C43 431 86 437 128.8 434C171.7 431 214.3 419 257.2 406.2C300 393.3 343 379.7 385.8 382.7C428.7 385.7 471.3 405.3 514.2 414.8C557 424.3 600 423.7 642.8 416.2C685.7 408.7 728.3 394.3 771.2 395.8C814 397.3 857 414.7 878.5 423.3L900 432L900 601L878.5 601C857 601 814 601 771.2 601C728.3 601 685.7 601 642.8 601C600 601 557 601 514.2 601C471.3 601 428.7 601 385.8 601C343 601 300 601 257.2 601C214.3 601 171.7 601 128.8 601C86 601 43 601 21.5 601L0 601Z" fill="#fa6969"></path><path d="M0 409L21.5 416.3C43 423.7 86 438.3 128.8 438.3C171.7 438.3 214.3 423.7 257.2 420.2C300 416.7 343 424.3 385.8 429.7C428.7 435 471.3 438 514.2 437.7C557 437.3 600 433.7 642.8 429.8C685.7 426 728.3 422 771.2 425.8C814 429.7 857 441.3 878.5 447.2L900 453L900 601L878.5 601C857 601 814 601 771.2 601C728.3 601 685.7 601 642.8 601C600 601 557 601 514.2 601C471.3 601 428.7 601 385.8 601C343 601 300 601 257.2 601C214.3 601 171.7 601 128.8 601C86 601 43 601 21.5 601L0 601Z" fill="#ff6c87"></path><path d="M0 476L21.5 480.2C43 484.3 86 492.7 128.8 498C171.7 503.3 214.3 505.7 257.2 498.3C300 491 343 474 385.8 462.5C428.7 451 471.3 445 514.2 446C557 447 600 455 642.8 460.2C685.7 465.3 728.3 467.7 771.2 469.5C814 471.3 857 472.7 878.5 473.3L900 474L900 601L878.5 601C857 601 814 601 771.2 601C728.3 601 685.7 601 642.8 601C600 601 557 601 514.2 601C471.3 601 428.7 601 385.8 601C343 601 300 601 257.2 601C214.3 601 171.7 601 128.8 601C86 601 43 601 21.5 601L0 601Z" fill="#ff73a4"></path><path d="M0 539L21.5 530C43 521 86 503 128.8 496.8C171.7 490.7 214.3 496.3 257.2 504.3C300 512.3 343 522.7 385.8 519.2C428.7 515.7 471.3 498.3 514.2 496C557 493.7 600 506.3 642.8 506.7C685.7 507 728.3 495 771.2 496.5C814 498 857 513 878.5 520.5L900 528L900 601L878.5 601C857 601 814 601 771.2 601C728.3 601 685.7 601 642.8 601C600 601 557 601 514.2 601C471.3 601 428.7 601 385.8 601C343 601 300 601 257.2 601C214.3 601 171.7 601 128.8 601C86 601 43 601 21.5 601L0 601Z" fill="#fd7ec1"></path><path d="M0 531L21.5 535.8C43 540.7 86 550.3 128.8 552C171.7 553.7 214.3 547.3 257.2 547.3C300 547.3 343 553.7 385.8 554.5C428.7 555.3 471.3 550.7 514.2 552.5C557 554.3 600 562.7 642.8 565.7C685.7 568.7 728.3 566.3 771.2 561.2C814 556 857 548 878.5 544L900 540L900 601L878.5 601C857 601 814 601 771.2 601C728.3 601 685.7 601 642.8 601C600 601 557 601 514.2 601C471.3 601 428.7 601 385.8 601C343 601 300 601 257.2 601C214.3 601 171.7 601 128.8 601C86 601 43 601 21.5 601L0 601Z" fill="#f68bdc"></path></svg>